<?xml version="1.0" standalone="no"?>
<!DOCTYPE svg PUBLIC "-//W3C//DTD SVG 20010904//EN"
 "http://www.w3.org/TR/2001/REC-SVG-20010904/DTD/svg10.dtd">
<svg version="1.0" xmlns="http://www.w3.org/2000/svg"
 width="272.000000pt" height="272.000000pt" viewBox="0 0 272.000000 272.000000"
 preserveAspectRatio="xMidYMid meet">
<metadata>
Created by potrace 1.14, written by Peter Selinger 2001-2017
</metadata>
<g transform="translate(0.000000,272.000000) scale(0.100000,-0.100000)"
fill="#000000" stroke="none">
<path d="M1265 2592 c-199 -19 -424 -105 -605 -231 -88 -61 -244 -220 -304
-310 -176 -265 -256 -588 -215 -866 5 -33 11 -77 14 -98 18 -133 144 -414 230
-514 6 -6 21 -26 35 -44 48 -63 218 -223 254 -239 6 -3 36 -22 68 -42 63 -42
135 -75 252 -119 74 -27 105 -34 181 -44 17 -2 44 -7 60 -11 37 -8 252 -8 320
0 107 12 121 15 148 25 15 6 27 7 27 4 0 -4 5 -2 12 5 7 7 19 12 28 12 47 0
248 97 357 172 69 48 217 185 257 238 65 88 91 125 91 132 0 4 8 16 17 27 35
42 127 269 142 356 3 17 8 41 11 55 20 96 25 266 12 388 -23 214 -125 456
-265 632 -56 69 -209 218 -234 226 -10 3 -18 10 -18 15 0 5 -7 9 -15 9 -8 0
-15 4 -15 9 0 5 -13 14 -30 21 -16 7 -30 17 -30 23 0 6 -3 7 -7 4 -3 -4 -13
-1 -22 7 -44 38 -285 128 -378 141 -15 2 -46 7 -67 10 -42 7 -261 12 -311 7z"/>
</g>
</svg>
